<svg id="Слой_1" xmlns="http://www.w3.org/2000/svg" viewBox="0 0 106.4 29.8"><style>.st1{fill:#000}</style><path class="st1" d="M0 28.7V7.2h4.7v1.9C5.2 8.3 6 7.6 7 7.2c1.1-.4 2.2-.6 3.3-.6 1.2 0 2.3.2 3.3.7 1 .4 1.8 1.1 2.5 2l.3.3c.1.1.2.3.3.4.2-.3.4-.6.6-.7.7-.9 1.6-1.5 2.7-2 1.1-.4 2.3-.7 3.5-.7 1.3 0 2.5.2 3.6.6 1.1.4 2 1.1 2.9 2 .9.9 1.5 2.1 1.8 3.5.3 1 .4 2.3.4 3.9v12.1H27v-12c0-.7 0-1.4-.1-2-.1-.6-.3-1.1-.6-1.6s-.7-.9-1.3-1.1c-.6-.3-1.2-.4-1.8-.4-1.6 0-2.8.6-3.5 1.8-.3.5-.6 1.2-.7 1.9-.1.7-.2 1.6-.2 2.5v10.8h-5.1V16.7c0-.7-.1-1.4-.1-1.9-.1-.5-.3-1-.7-1.6-.4-.5-.8-.9-1.4-1.2-.6-.3-1.2-.4-1.9-.4-1.8 0-3 .8-3.6 2.3-.4.9-.6 2.5-.6 4.6v10.2H0z"/><path class="st1" d="M46.5 13.2h-5c-.1-.5-.3-.9-.7-1.2-.4-.3-.8-.4-1.3-.4-.6 0-1.1.1-1.4.4-.4.3-.6.7-.6 1.3 0 .6.3 1.1 1 1.5.3.2.9.4 1.9.6 2.8.9 4.6 1.8 5.4 2.7.8 1 1.2 2.2 1.2 3.7 0 2.1-.7 3.8-2.1 5.2-1.6 1.5-3.4 2.2-5.6 2.2-2.2 0-4-.7-5.5-2.1-1.5-1.4-2.2-3.2-2.2-5.4h5.3c.1.7.4 1.3.9 1.7.5.4 1.1.7 1.8.7.6 0 1.2-.2 1.7-.5.5-.4.7-.9.7-1.6 0-.7-.4-1.4-1.3-1.8-.4-.2-1.1-.5-2.3-.9-1-.3-1.7-.5-2.1-.7-.6-.3-1.2-.7-1.8-1.2-1.4-1.1-2.1-2.6-2.1-4.5s.7-3.5 2.1-4.7c1.4-1.2 3.1-1.8 5.1-1.8 1.8 0 3.4.6 4.8 1.9 1.4 1.5 2.1 3 2.1 4.9z"/><path class="st1" d="M47.3 28.7V11.8h-2.5V7.2h2.5V0h5.2v7.2h3.1v4.6h-3.1v16.9h-5.2z"/><path class="st1" d="M64.9 6.6c3.1 0 5.8 1.1 8 3.3 2.2 2.2 3.3 4.9 3.3 8.1s-1.1 5.9-3.4 8.1c-2.2 2.2-4.9 3.3-8.1 3.3-3.1 0-5.8-1.1-8-3.4-2.3-2.2-3.4-4.9-3.4-8 0-3.2 1.1-5.9 3.4-8.1 2.2-2.2 5-3.3 8.2-3.3zm-.2 5c-.8 0-1.6.2-2.4.5-.8.3-1.5.8-2 1.4-.6.6-1 1.3-1.3 2-.3.8-.4 1.6-.4 2.4 0 1.7.6 3.2 1.8 4.5 1.2 1.2 2.7 1.9 4.4 1.9 1.8 0 3.3-.6 4.5-1.8 1.2-1.2 1.8-2.7 1.8-4.5s-.6-3.3-1.8-4.5c-1.3-1.3-2.8-1.9-4.6-1.9z"/><path class="st1" d="M75.5 28.7V7.2h4.7v1.9c.6-.9 1.2-1.6 2-2 .7-.4 1.6-.6 2.7-.6h.4v4.9c-1.2 0-2.2.3-3.1 1-.6.5-1 1-1.2 1.7-.2.6-.3 1.3-.3 2.1v12.4h-5.2z"/><path class="st1" d="M105.3 20.3H88.7c.4 1.2 1.1 2.2 2.1 2.9 1 .7 2.2 1.1 3.5 1.1 1 0 1.9-.2 2.8-.5.9-.3 1.5-.8 2.1-1.3h5.7c-.7 1.9-2 3.5-4 4.9-2 1.3-4.1 2-6.4 2-3.1 0-5.8-1.1-8-3.3-2.2-2.2-3.3-4.8-3.3-8s1.1-5.9 3.3-8.1c2.2-2.2 4.9-3.4 8.1-3.4 3 0 5.6 1.1 7.8 3.3 2.2 2.2 3.2 4.8 3.2 7.9 0 .4 0 .8-.1 1.2-.1.4-.1.9-.2 1.3zm-16.7-4.6h11.8c-.4-1.2-1.2-2.2-2.2-3-1-.7-2.2-1.1-3.6-1.1-1.3 0-2.6.4-3.7 1.1-1.2.8-1.9 1.8-2.3 3z"/><circle cx="102.4" cy="25.8" r="4" fill="#00c8c8"/></svg>